<svg version="1.1" id="Layer_1" xmlns="http://www.w3.org/2000/svg" xmlns:xlink="http://www.w3.org/1999/xlink" x="0px" y="0px"
	 width="100%" viewBox="0 0 512 512" enable-background="new 0 0 512 512" xml:space="preserve">
<path fill="#F4002F" opacity="1.000000" stroke="none" 
	d="
M1.000001,438.000000 
	C1.000000,317.310699 1.000000,196.621384 1.326996,75.766830 
	C2.100167,74.772606 2.731269,73.992455 2.964911,73.107376 
	C6.766769,58.705276 12.832762,45.345245 22.586452,34.046833 
	C36.495655,17.934786 53.767651,7.127759 74.861107,2.860385 
	C75.346336,2.762221 75.624992,1.642968 76.000000,1.000000 
	C196.355972,1.000000 316.711945,1.000000 437.279022,1.354974 
	C438.158081,2.129710 438.777863,2.788088 439.501068,2.934091 
	C454.709839,6.004432 468.304749,12.661994 479.986206,22.657394 
	C496.134705,36.475094 506.890442,53.788326 511.140381,74.864120 
	C511.237946,75.348076 512.357239,75.625992 513.000000,76.000015 
	C513.000000,196.355972 513.000000,316.711945 512.645020,437.279022 
	C511.870392,438.158386 511.211731,438.778625 511.066284,439.501984 
	C508.009216,454.709656 501.350220,468.307617 491.365692,479.980560 
	C477.549896,496.132690 460.219849,506.890656 439.136078,511.140076 
	C438.652100,511.237610 438.374084,512.357178 438.000000,513.000000 
	C317.644043,513.000000 197.288055,513.000000 76.720428,512.644653 
	C75.840378,511.869934 75.220100,511.212097 74.496529,511.066132 
	C59.293610,507.998169 45.706535,501.342072 34.024693,491.355347 
	C17.862446,477.538300 7.117288,460.214600 2.860150,439.136658 
	C2.762322,438.652283 1.642901,438.374268 1.000001,438.000000 
M171.822571,144.665970 
	C170.018936,141.088211 166.925049,140.083267 163.147675,139.946564 
	C153.493896,139.597198 143.850739,138.907242 134.195541,138.667862 
	C130.332550,138.572083 128.305130,137.242767 126.993034,133.468491 
	C123.826653,124.360382 120.116661,115.442551 116.721085,106.412201 
	C115.268661,102.549545 113.224495,99.487091 108.600090,99.598465 
	C104.247375,99.703300 102.328178,102.640945 100.939301,106.337639 
	C97.370689,115.835968 93.518906,125.229797 90.069901,134.770081 
	C88.942856,137.887573 87.464409,139.122147 84.032700,139.207870 
	C74.046310,139.457336 64.074585,140.243225 54.090420,140.657486 
	C50.111103,140.822586 46.733322,141.807343 45.352688,145.901764 
	C43.886444,150.250031 46.284035,153.119354 49.463074,155.715988 
	C57.074188,161.932709 64.481689,168.403595 72.199707,174.481964 
	C74.984535,176.675171 75.668945,178.746780 74.703522,182.098129 
	C72.125443,191.047653 69.914558,200.102264 67.449440,209.085373 
	C66.297913,213.281677 65.479218,217.339600 69.668182,220.384705 
	C73.680748,223.301559 77.152748,221.352478 80.669975,219.101212 
	C88.942886,213.805984 97.207893,208.486481 105.680511,203.525940 
	C107.239998,202.612885 110.209373,202.558487 111.765518,203.445465 
	C120.583488,208.471588 129.193863,213.865387 137.822311,219.218796 
	C141.223221,221.328888 144.636612,222.163162 148.003281,219.510925 
	C151.142166,217.038147 151.353546,213.779861 150.310043,210.030899 
	C147.633804,200.416061 145.358383,190.688599 142.614990,181.094162 
	C141.751907,178.075729 142.190186,176.273895 144.680008,174.283768 
	C152.745911,167.836670 160.563278,161.079727 168.557083,154.540771 
	C171.554489,152.088882 173.012390,149.235733 171.822571,144.665970 
M277.587006,101.872421 
	C276.790344,99.863213 276.243042,97.699776 275.123840,95.890030 
	C274.093384,94.223778 272.448090,92.937775 271.073608,91.484276 
	C269.721558,92.979004 267.460266,94.313759 267.164581,95.994354 
	C265.195862,107.183937 258.579773,111.280609 247.680725,110.030602 
	C246.127762,109.852501 244.368927,111.469444 242.705368,112.255615 
	C243.506561,113.911972 243.864334,116.370125 245.179367,117.097404 
	C255.367966,122.732094 257.486938,130.528091 252.569092,140.846954 
	C251.986237,142.069962 252.594620,144.905014 253.590240,145.555939 
	C254.687912,146.273605 257.089355,145.764496 258.534302,145.027740 
	C261.783691,143.371002 264.921692,141.418060 267.859894,139.252960 
	C270.297760,137.456543 272.265961,137.707336 274.601166,139.326569 
	C277.743439,141.505417 280.960571,143.625015 284.350647,145.372086 
	C285.584747,146.008072 287.721497,146.025635 288.858246,145.344162 
	C289.705841,144.836090 290.307800,142.406555 289.823334,141.419983 
	C284.434967,130.447556 287.307220,122.386230 297.834442,116.527252 
	C298.896851,115.935936 299.955566,113.270157 299.483826,112.466850 
	C298.746063,111.210495 296.778503,110.307541 295.188812,110.003891 
	C292.595184,109.508461 289.867554,109.345268 287.229950,109.527229 
	C282.009460,109.887375 278.643524,108.087898 277.587006,101.872421 
M203.790756,238.192322 
	C202.584396,244.597839 198.857605,247.417923 192.317642,246.312408 
	C191.680405,246.204697 190.959503,246.269318 190.336624,246.453796 
	C187.352112,247.337723 184.387985,248.290466 181.416611,249.218750 
	C183.307861,251.705765 184.704559,254.992065 187.185013,256.526855 
	C194.066193,260.784576 195.860931,265.855225 192.640701,273.399323 
	C191.529007,276.003632 192.490570,279.492950 192.505081,282.578003 
	C195.334244,281.628326 198.764175,281.387848 200.879730,279.595764 
	C207.186676,274.253143 212.780228,274.084808 219.108826,279.571472 
	C221.189392,281.375275 225.447678,283.184143 227.282150,282.233917 
	C231.172668,280.218689 228.386932,276.092529 227.306442,273.363342 
	C224.479660,266.223175 225.267456,260.765259 232.481140,256.949524 
	C234.062210,256.113190 235.533493,254.827133 236.646973,253.424103 
	C237.571640,252.258957 238.636002,250.381577 238.276535,249.253860 
	C237.923019,248.144836 235.923141,247.062820 234.525986,246.879028 
	C230.579453,246.359894 226.521866,246.599396 222.611069,245.934219 
	C220.938950,245.649796 218.910568,244.188751 218.114105,242.692688 
	C216.331848,239.344925 215.433990,235.533844 213.741089,232.127594 
	C212.965302,230.566605 211.317123,228.843170 209.769043,228.490448 
	C208.871719,228.286011 207.109421,230.488800 206.239502,231.915146 
	C205.219254,233.587982 204.745270,235.593964 203.790756,238.192322 
M252.514328,194.060593 
	C250.518250,194.167007 248.450073,193.989685 246.549713,194.472717 
	C245.119339,194.836304 243.157425,195.813980 242.804672,196.945999 
	C242.456451,198.063477 243.698349,199.800919 244.501724,201.107025 
	C244.999146,201.915741 245.894974,202.585236 246.756653,203.047684 
	C255.356506,207.663300 257.347961,214.165329 253.206146,223.063004 
	C252.308380,224.991608 253.438370,227.864105 253.634369,230.301834 
	C255.879440,229.690292 258.131073,229.101212 260.364197,228.448792 
	C260.826294,228.313766 261.279510,228.006851 261.635620,227.671616 
	C267.906342,221.768524 274.163635,221.368301 280.532990,227.561218 
	C281.466675,228.469070 282.682495,229.253143 283.911224,229.647995 
	C285.362091,230.114197 287.629028,230.797974 288.351593,230.119492 
	C289.403351,229.131912 290.258606,226.588745 289.698303,225.440323 
	C284.501984,214.788986 287.258209,207.025162 297.448669,201.326843 
	C298.638000,200.661774 299.781586,198.008621 299.355133,196.876678 
	C298.894562,195.654175 296.633911,194.632935 295.036377,194.413879 
	C291.586792,193.940872 288.052887,193.844955 284.565186,193.957123 
	C281.375610,194.059692 279.770203,192.780197 278.847473,189.752075 
	C277.735291,186.102432 276.308807,182.518066 274.656555,179.079300 
	C274.038727,177.793457 272.429413,176.238815 271.222626,176.195770 
	C270.070831,176.154694 268.464325,177.697784 267.753357,178.941986 
	C266.528625,181.085297 265.838837,183.535141 264.933167,185.859711 
	C261.839661,193.799713 261.841095,193.800278 252.514328,194.060593 
M190.094284,57.784313 
	C187.256104,58.624638 184.417923,59.464962 181.579742,60.305286 
	C183.276871,62.702808 184.967636,65.104881 186.680069,67.491432 
	C186.868393,67.753891 187.151825,67.982315 187.439880,68.134041 
	C194.598007,71.904549 195.635071,77.328835 192.630035,84.556396 
	C191.581451,87.078400 192.434479,90.391037 192.419052,93.342606 
	C195.234116,92.455643 198.621887,92.276176 200.756332,90.548401 
	C207.033722,85.467079 212.632202,84.723549 219.008530,90.436783 
	C221.159164,92.363777 224.432144,96.154068 227.498062,92.983299 
	C228.940521,91.491524 228.381897,86.953377 227.325806,84.369667 
	C224.391296,77.190384 225.252441,71.756973 232.449661,67.882996 
	C234.172760,66.955521 235.730301,65.523582 236.998138,64.015991 
	C237.849640,63.003445 238.701309,61.246395 238.370331,60.194572 
	C238.042816,59.153767 236.323059,58.192726 235.049042,57.889309 
	C232.967056,57.393459 230.689972,57.049686 228.602798,57.361633 
	C220.863098,58.518398 217.283340,54.854195 215.478973,47.681396 
	C214.711349,44.629852 212.281433,39.953999 210.166992,39.701565 
	C205.517044,39.146423 205.317535,44.648525 204.554413,47.769859 
	C202.721512,55.266899 198.718079,58.776039 190.094284,57.784313 
z"/>
<path fill="#000000" opacity="0.000000" stroke="none" 
	d="
M513.000000,75.531357 
	C512.357239,75.625992 511.237946,75.348076 511.140381,74.864120 
	C506.890442,53.788326 496.134705,36.475094 479.986206,22.657394 
	C468.304749,12.661994 454.709839,6.004432 439.501068,2.934091 
	C438.777863,2.788088 438.158081,2.129710 437.745056,1.354974 
	C462.926849,1.000000 487.853729,1.000000 513.000000,1.000000 
	C513.000000,25.687128 513.000000,50.374905 513.000000,75.531357 
z"/>
<path fill="#000000" opacity="0.000000" stroke="none" 
	d="
M1.000001,438.468658 
	C1.642901,438.374268 2.762322,438.652283 2.860150,439.136658 
	C7.117288,460.214600 17.862446,477.538300 34.024693,491.355347 
	C45.706535,501.342072 59.293610,507.998169 74.496529,511.066132 
	C75.220100,511.212097 75.840378,511.869934 76.254379,512.644653 
	C51.073128,513.000000 26.146255,513.000000 1.000000,513.000000 
	C1.000000,488.312866 1.000000,463.625092 1.000001,438.468658 
z"/>
<path fill="#000000" opacity="0.000000" stroke="none" 
	d="
M438.468658,513.000000 
	C438.374084,512.357178 438.652100,511.237610 439.136078,511.140076 
	C460.219849,506.890656 477.549896,496.132690 491.365692,479.980560 
	C501.350220,468.307617 508.009216,454.709656 511.066284,439.501984 
	C511.211731,438.778625 511.870392,438.158386 512.645020,437.745056 
	C513.000000,462.926849 513.000000,487.853729 513.000000,513.000000 
	C488.312866,513.000000 463.625092,513.000000 438.468658,513.000000 
z"/>
<path fill="#000000" opacity="0.000000" stroke="none" 
	d="
M75.531342,1.000000 
	C75.624992,1.642968 75.346336,2.762221 74.861107,2.860385 
	C53.767651,7.127759 36.495655,17.934786 22.586452,34.046833 
	C12.832762,45.345245 6.766769,58.705276 2.964911,73.107376 
	C2.731269,73.992455 2.100167,74.772606 1.326996,75.300789 
	C1.000000,50.405975 1.000000,25.811947 1.000000,1.000000 
	C25.687134,1.000000 50.374908,1.000000 75.531342,1.000000 
z"/>
<path fill="#FFE400" opacity="1.000000" stroke="none" 
	d="
M171.926331,145.016113 
	C173.012390,149.235733 171.554489,152.088882 168.557083,154.540771 
	C160.563278,161.079727 152.745911,167.836670 144.680008,174.283768 
	C142.190186,176.273895 141.751907,178.075729 142.614990,181.094162 
	C145.358383,190.688599 147.633804,200.416061 150.310043,210.030899 
	C151.353546,213.779861 151.142166,217.038147 148.003281,219.510925 
	C144.636612,222.163162 141.223221,221.328888 137.822311,219.218796 
	C129.193863,213.865387 120.583488,208.471588 111.765518,203.445465 
	C110.209373,202.558487 107.239998,202.612885 105.680511,203.525940 
	C97.207893,208.486481 88.942886,213.805984 80.669975,219.101212 
	C77.152748,221.352478 73.680748,223.301559 69.668182,220.384705 
	C65.479218,217.339600 66.297913,213.281677 67.449440,209.085373 
	C69.914558,200.102264 72.125443,191.047653 74.703522,182.098129 
	C75.668945,178.746780 74.984535,176.675171 72.199707,174.481964 
	C64.481689,168.403595 57.074188,161.932709 49.463074,155.715988 
	C46.284035,153.119354 43.886444,150.250031 45.352688,145.901764 
	C46.733322,141.807343 50.111103,140.822586 54.090420,140.657486 
	C64.074585,140.243225 74.046310,139.457336 84.032700,139.207870 
	C87.464409,139.122147 88.942856,137.887573 90.069901,134.770081 
	C93.518906,125.229797 97.370689,115.835968 100.939301,106.337639 
	C102.328178,102.640945 104.247375,99.703300 108.600090,99.598465 
	C113.224495,99.487091 115.268661,102.549545 116.721085,106.412201 
	C120.116661,115.442551 123.826653,124.360382 126.993034,133.468491 
	C128.305130,137.242767 130.332550,138.572083 134.195541,138.667862 
	C143.850739,138.907242 153.493896,139.597198 163.147675,139.946564 
	C166.925049,140.083267 170.018936,141.088211 171.926331,145.016113 
z"/>
<path fill="#FFE201" opacity="1.000000" stroke="none" 
	d="
M277.733948,102.235321 
	C278.643524,108.087898 282.009460,109.887375 287.229950,109.527229 
	C289.867554,109.345268 292.595184,109.508461 295.188812,110.003891 
	C296.778503,110.307541 298.746063,111.210495 299.483826,112.466850 
	C299.955566,113.270157 298.896851,115.935936 297.834442,116.527252 
	C287.307220,122.386230 284.434967,130.447556 289.823334,141.419983 
	C290.307800,142.406555 289.705841,144.836090 288.858246,145.344162 
	C287.721497,146.025635 285.584747,146.008072 284.350647,145.372086 
	C280.960571,143.625015 277.743439,141.505417 274.601166,139.326569 
	C272.265961,137.707336 270.297760,137.456543 267.859894,139.252960 
	C264.921692,141.418060 261.783691,143.371002 258.534302,145.027740 
	C257.089355,145.764496 254.687912,146.273605 253.590240,145.555939 
	C252.594620,144.905014 251.986237,142.069962 252.569092,140.846954 
	C257.486938,130.528091 255.367966,122.732094 245.179367,117.097404 
	C243.864334,116.370125 243.506561,113.911972 242.705383,112.255615 
	C244.368927,111.469444 246.127762,109.852501 247.680725,110.030602 
	C258.579773,111.280609 265.195862,107.183937 267.164581,95.994354 
	C267.460266,94.313759 269.721558,92.979004 271.073608,91.484268 
	C272.448090,92.937775 274.093384,94.223778 275.123840,95.890030 
	C276.243042,97.699776 276.790344,99.863213 277.733948,102.235321 
z"/>
<path fill="#FFE201" opacity="1.000000" stroke="none" 
	d="
M203.912552,237.823883 
	C204.745270,235.593964 205.219254,233.587982 206.239502,231.915146 
	C207.109421,230.488800 208.871719,228.286011 209.769043,228.490448 
	C211.317123,228.843170 212.965302,230.566605 213.741089,232.127594 
	C215.433990,235.533844 216.331848,239.344925 218.114105,242.692688 
	C218.910568,244.188751 220.938950,245.649796 222.611069,245.934219 
	C226.521866,246.599396 230.579453,246.359894 234.525986,246.879028 
	C235.923141,247.062820 237.923019,248.144836 238.276535,249.253860 
	C238.636002,250.381577 237.571640,252.258957 236.646973,253.424103 
	C235.533493,254.827133 234.062210,256.113190 232.481140,256.949524 
	C225.267456,260.765259 224.479660,266.223175 227.306442,273.363342 
	C228.386932,276.092529 231.172668,280.218689 227.282150,282.233917 
	C225.447678,283.184143 221.189392,281.375275 219.108826,279.571472 
	C212.780228,274.084808 207.186676,274.253143 200.879730,279.595764 
	C198.764175,281.387848 195.334244,281.628326 192.505081,282.578003 
	C192.490570,279.492950 191.529007,276.003632 192.640701,273.399323 
	C195.860931,265.855225 194.066193,260.784576 187.185013,256.526855 
	C184.704559,254.992065 183.307861,251.705765 181.416611,249.218750 
	C184.387985,248.290466 187.352112,247.337723 190.336624,246.453796 
	C190.959503,246.269318 191.680405,246.204697 192.317642,246.312408 
	C198.857605,247.417923 202.584396,244.597839 203.912552,237.823883 
z"/>
<path fill="#FFE201" opacity="1.000000" stroke="none" 
	d="
M252.976761,194.044632 
	C261.841095,193.800278 261.839661,193.799713 264.933167,185.859711 
	C265.838837,183.535141 266.528625,181.085297 267.753357,178.941986 
	C268.464325,177.697784 270.070831,176.154694 271.222626,176.195770 
	C272.429413,176.238815 274.038727,177.793457 274.656555,179.079300 
	C276.308807,182.518066 277.735291,186.102432 278.847473,189.752075 
	C279.770203,192.780197 281.375610,194.059692 284.565186,193.957123 
	C288.052887,193.844955 291.586792,193.940872 295.036377,194.413879 
	C296.633911,194.632935 298.894562,195.654175 299.355133,196.876678 
	C299.781586,198.008621 298.638000,200.661774 297.448669,201.326843 
	C287.258209,207.025162 284.501984,214.788986 289.698303,225.440323 
	C290.258606,226.588745 289.403351,229.131912 288.351593,230.119492 
	C287.629028,230.797974 285.362091,230.114197 283.911224,229.647995 
	C282.682495,229.253143 281.466675,228.469070 280.532990,227.561218 
	C274.163635,221.368301 267.906342,221.768524 261.635620,227.671616 
	C261.279510,228.006851 260.826294,228.313766 260.364197,228.448792 
	C258.131073,229.101212 255.879440,229.690292 253.634369,230.301834 
	C253.438370,227.864105 252.308380,224.991608 253.206146,223.063004 
	C257.347961,214.165329 255.356506,207.663300 246.756653,203.047684 
	C245.894974,202.585236 244.999146,201.915741 244.501724,201.107025 
	C243.698349,199.800919 242.456451,198.063477 242.804672,196.945999 
	C243.157425,195.813980 245.119339,194.836304 246.549713,194.472717 
	C248.450073,193.989685 250.518250,194.167007 252.976761,194.044632 
z"/>
<path fill="#FFE201" opacity="1.000000" stroke="none" 
	d="
M190.538391,57.761871 
	C198.718079,58.776039 202.721512,55.266899 204.554413,47.769859 
	C205.317535,44.648525 205.517044,39.146423 210.166992,39.701565 
	C212.281433,39.953999 214.711349,44.629852 215.478973,47.681396 
	C217.283340,54.854195 220.863098,58.518398 228.602798,57.361633 
	C230.689972,57.049686 232.967056,57.393459 235.049042,57.889309 
	C236.323059,58.192726 238.042816,59.153767 238.370331,60.194572 
	C238.701309,61.246395 237.849640,63.003445 236.998138,64.015991 
	C235.730301,65.523582 234.172760,66.955521 232.449661,67.882996 
	C225.252441,71.756973 224.391296,77.190384 227.325806,84.369667 
	C228.381897,86.953377 228.940521,91.491524 227.498062,92.983299 
	C224.432144,96.154068 221.159164,92.363777 219.008530,90.436783 
	C212.632202,84.723549 207.033722,85.467079 200.756332,90.548401 
	C198.621887,92.276176 195.234116,92.455643 192.419067,93.342606 
	C192.434479,90.391037 191.581451,87.078400 192.630035,84.556396 
	C195.635071,77.328835 194.598007,71.904549 187.439880,68.134041 
	C187.151825,67.982315 186.868393,67.753891 186.680069,67.491432 
	C184.967636,65.104881 183.276871,62.702808 181.579742,60.305286 
	C184.417923,59.464962 187.256104,58.624638 190.538391,57.761871 
z"/>
</svg>