<svg version="1.1" id="Layer_1" xmlns="http://www.w3.org/2000/svg" xmlns:xlink="http://www.w3.org/1999/xlink" x="0px" y="0px"
	 width="100%" viewBox="0 0 512 512" enable-background="new 0 0 512 512" xml:space="preserve">
<path fill="#FFFFFF" opacity="1.000000" stroke="none" 
	d="
M1.244331,438.279938 
	C1.000000,317.312439 1.000000,196.624878 1.000000,75.468658 
	C3.765784,66.321236 6.421587,57.635452 10.786736,49.532486 
	C23.928082,25.138382 44.302917,10.054668 70.575066,2.364723 
	C72.178383,1.895425 73.927948,2.366251 75.721016,1.244164 
	C196.354233,1.000000 316.708466,1.000000 437.531342,1.000000 
	C447.135529,3.419398 456.060669,6.302540 464.463654,10.807953 
	C488.898041,23.908880 503.951355,44.300648 511.636841,70.573097 
	C512.105835,72.176308 511.634521,73.925690 512.755737,75.720070 
	C513.000000,196.354233 513.000000,316.708466 513.000000,437.531342 
	C510.580597,447.135529 507.697479,456.060699 503.192017,464.463654 
	C490.091034,488.897858 469.699524,503.951508 443.426971,511.636871 
	C441.823730,512.105835 440.074341,511.634644 438.279907,512.755676 
	C317.645782,513.000000 197.291550,513.000000 76.468658,513.000000 
	C66.864464,510.580658 57.939323,507.697479 49.536343,503.192047 
	C25.102066,490.091095 10.048651,469.699432 2.363163,443.426971 
	C1.894178,441.823761 2.365423,440.074371 1.244331,438.279938 
z"/>
<path fill="#000000" opacity="0.000000" stroke="none" 
	d="
M513.000000,75.531342 
	C511.624207,77.157890 511.222107,75.774139 511.079590,75.033150 
	C507.019318,53.924885 496.245514,36.660866 480.162689,22.831924 
	C468.414490,12.730170 454.759369,5.915747 439.368164,3.015104 
	C438.437134,2.839639 437.911926,2.349760 437.701233,1.346942 
	C461.929779,1.000000 485.859985,1.063123 509.788849,0.916096 
	C512.619934,0.898701 513.090210,1.566509 513.075256,4.270772 
	C512.944885,27.867493 513.000000,51.465240 513.000000,75.531342 
z"/>
<path fill="#000000" opacity="0.000000" stroke="none" 
	d="
M1.000000,438.468658 
	C2.375792,436.842163 2.777845,438.225830 2.920390,438.966888 
	C6.980594,460.075134 17.754467,477.339081 33.837227,491.168091 
	C45.585445,501.269897 59.240643,508.084198 74.631866,510.984894 
	C75.562874,511.160370 76.088104,511.650238 76.298775,512.653076 
	C52.070202,513.000000 28.140017,512.936890 4.211123,513.083923 
	C1.380020,513.101318 0.909737,512.433411 0.924680,509.729187 
	C1.055069,486.132477 1.000000,462.534760 1.000000,438.468658 
z"/>
<path fill="#000000" opacity="0.000000" stroke="none" 
	d="
M438.468658,513.000000 
	C436.842194,511.624237 438.225800,511.222076 438.966858,511.079529 
	C460.075134,507.019318 477.339111,496.245544 491.168121,480.162750 
	C501.269958,468.414581 508.084106,454.759308 510.984894,439.368164 
	C511.160400,438.437134 511.650208,437.911896 512.653076,437.701233 
	C513.000000,461.929810 512.936890,485.859985 513.083923,509.788879 
	C513.101318,512.619934 512.433472,513.090210 509.729218,513.075317 
	C486.132507,512.944885 462.534760,513.000000 438.468658,513.000000 
z"/>
<path fill="#000000" opacity="0.000000" stroke="none" 
	d="
M75.531342,1.000000 
	C77.162880,2.366788 75.776352,2.778726 75.045509,2.918718 
	C53.844139,6.979828 36.599072,17.886818 22.654633,33.973522 
	C12.852941,45.281033 6.696079,58.669903 3.054982,73.172058 
	C2.794732,74.208618 2.573679,75.029404 1.338111,75.296661 
	C1.000000,51.403030 1.064181,27.805653 0.915833,4.209616 
	C0.898014,1.375381 1.571092,0.910026 4.272185,0.924902 
	C27.868441,1.054852 51.465714,1.000000 75.531342,1.000000 
z"/>
<path fill="#F4002F" opacity="1.000000" stroke="none" 
	d="
M109.154449,285.729187 
	C101.118843,237.880371 111.328827,194.852234 143.325867,158.770584 
	C184.027481,112.873192 235.847305,96.317207 295.017334,111.732086 
	C354.444580,127.213966 391.551208,167.350098 404.472626,227.397293 
	C422.151672,309.553558 366.110565,390.943207 283.702911,405.136841 
	C202.694321,419.089478 127.151604,368.259155 109.733864,288.082458 
	C109.592644,287.432373 109.392883,286.795074 109.154449,285.729187 
z"/>
</svg>