<svg version="1.1" id="Layer_1" xmlns="http://www.w3.org/2000/svg" xmlns:xlink="http://www.w3.org/1999/xlink" x="0px" y="0px"
	 width="100%" viewBox="0 0 512 512" enable-background="new 0 0 512 512" xml:space="preserve">
<path fill="#0041A8" opacity="1.000000" stroke="none" 
	d="
M1.366117,340.342102 
	C1.000000,284.979095 1.000000,229.958206 1.000000,174.468658 
	C2.273807,172.494492 3.928731,171.932159 5.864394,171.877533 
	C8.196391,171.811722 10.527633,171.781967 12.859642,171.781937 
	C175.618851,171.778946 338.378052,171.771103 501.137238,171.830612 
	C504.862732,171.831970 508.829895,170.827774 512.633667,173.657745 
	C513.000000,229.020889 513.000000,284.041779 513.000000,339.531342 
	C511.726227,341.505524 510.071289,342.067871 508.135651,342.122498 
	C505.803650,342.188324 503.472382,342.217987 501.140381,342.218048 
	C338.381317,342.221100 175.622238,342.228943 12.863182,342.169342 
	C9.137408,342.167999 5.169912,343.172455 1.366117,340.342102 
z"/>
<path fill="#DB0025" opacity="1.000000" stroke="none" 
	d="
M512.633667,418.657745 
	C513.000000,425.354401 513.000000,431.708801 513.000000,438.531616 
	C511.076141,442.770630 511.671722,447.114532 510.219910,451.010651 
	C499.391418,480.069427 479.315552,499.787354 450.295502,510.524200 
	C446.824158,511.808533 443.040009,511.288330 439.285858,512.759277 
	C317.979095,513.000000 196.958206,513.000000 75.468658,513.000000 
	C71.728996,511.137878 67.891159,511.754578 64.450508,510.549622 
	C34.419914,500.032410 14.166928,479.741730 3.542966,449.783783 
	C2.255986,446.154694 2.486949,442.251251 1.240708,438.286530 
	C1.000000,431.978851 1.000000,425.957703 1.000000,419.468262 
	C2.273805,417.494476 3.928749,416.932159 5.864399,416.877533 
	C8.196398,416.811707 10.527639,416.781952 12.859648,416.781921 
	C175.618851,416.778839 338.378052,416.771027 501.137238,416.830597 
	C504.862732,416.831970 508.829895,415.827728 512.633667,418.657745 
z"/>
<path fill="#DB0025" opacity="1.000000" stroke="none" 
	d="
M75.712662,1.240860 
	C196.354233,1.000000 316.708466,1.000000 437.531342,1.000000 
	C438.508606,1.433867 439.032867,1.821094 439.733429,1.904963 
	C462.219055,4.596804 479.142883,16.981544 493.355560,33.491047 
	C503.700897,45.508312 510.749542,59.337921 512.759155,75.712585 
	C513.000000,82.021156 513.000000,88.042305 513.000000,94.531731 
	C511.726196,96.505493 510.071289,97.067841 508.135620,97.122467 
	C505.803619,97.188271 503.472382,97.218018 501.140381,97.218056 
	C338.381287,97.221046 175.622192,97.228882 12.863108,97.169365 
	C9.137393,97.167999 5.169956,98.172424 1.366158,95.342125 
	C1.000000,88.978844 1.000000,82.957695 1.000000,76.468269 
	C1.433864,75.491547 1.800588,74.963547 1.907861,74.267578 
	C6.345721,45.475533 23.344828,25.653452 47.415115,11.057964 
	C55.986774,5.860371 65.261093,2.250993 75.712662,1.240860 
z"/>
<path fill="#FFFFFF" opacity="1.000000" stroke="none" 
	d="
M1.000000,95.468658 
	C1.991147,95.083176 2.982295,95.239220 3.973442,95.239212 
	C173.343506,95.237541 342.713562,95.224709 512.541809,95.106155 
	C513.000000,121.020897 513.000000,147.041794 513.000000,173.531342 
	C511.680756,173.894104 510.361542,173.695557 509.042297,173.695450 
	C340.328888,173.683228 171.615448,173.685547 2.902030,173.688995 
	C2.569285,173.689011 2.236541,173.716644 1.451898,173.865692 
	C1.000000,147.979111 1.000000,121.958214 1.000000,95.468658 
z"/>
<path fill="#FFFFFF" opacity="1.000000" stroke="none" 
	d="
M513.000000,418.531342 
	C512.005249,418.939606 511.010468,418.826294 510.015717,418.826294 
	C340.652557,418.827332 171.289383,418.836456 1.463113,418.922638 
	C1.000000,392.979095 1.000000,366.958221 0.999999,340.468689 
	C2.475807,340.140656 3.951604,340.404327 5.427429,340.404510 
	C173.492630,340.422974 341.557831,340.421967 509.623047,340.418793 
	C510.455170,340.418793 511.287262,340.372864 512.559692,340.174194 
	C513.000000,366.020905 513.000000,392.041779 513.000000,418.531342 
z"/>
<path fill="#000000" opacity="0.000000" stroke="none" 
	d="
M75.531342,1.000000 
	C76.626106,2.375752 75.713783,2.722721 74.674530,2.934435 
	C60.495174,5.823022 47.906445,11.959470 36.516491,20.897146 
	C21.313334,32.827038 11.175170,48.112980 4.961857,66.261940 
	C3.818070,69.602913 3.832303,73.303658 1.384448,76.169067 
	C1.000000,52.070206 1.063125,28.140024 0.916093,4.211131 
	C0.898697,1.380055 1.566556,0.909735 4.270787,0.924678 
	C27.867502,1.055072 51.465244,1.000000 75.531342,1.000000 
z"/>
<path fill="#000000" opacity="0.000000" stroke="none" 
	d="
M513.000000,75.531342 
	C511.624512,76.628494 511.281250,75.714287 511.064819,74.677040 
	C505.642822,48.692837 491.000824,28.981936 469.058716,14.772522 
	C460.043549,8.934445 450.038757,4.584541 439.172180,2.883180 
	C438.624817,2.797486 438.164734,2.154175 437.832031,1.385248 
	C461.929779,1.000000 485.859985,1.063123 509.788849,0.916096 
	C512.619934,0.898701 513.090210,1.566509 513.075256,4.270772 
	C512.944885,27.867493 513.000000,51.465240 513.000000,75.531342 
z"/>
<path fill="#000000" opacity="0.000000" stroke="none" 
	d="
M1.000000,438.468658 
	C2.374530,437.370728 2.722999,438.284149 2.934474,439.321198 
	C7.119643,459.845367 17.582148,476.734711 33.093277,490.523071 
	C44.543755,500.701782 58.138485,506.981995 72.837578,510.962280 
	C73.806427,511.224640 74.817108,511.169495 75.157768,512.622437 
	C51.403027,513.000000 27.805649,512.935791 4.209607,513.084106 
	C1.375344,513.101990 0.910028,512.428833 0.924903,509.727783 
	C1.054850,486.131561 1.000000,462.534271 1.000000,438.468658 
z"/>
<path fill="#000000" opacity="0.000000" stroke="none" 
	d="
M439.468658,513.000000 
	C438.493805,510.813690 440.153412,511.270874 441.354462,510.962769 
	C461.351288,505.833160 478.261475,495.510010 491.573547,479.800171 
	C501.096283,468.562073 507.351074,455.431885 510.963287,441.112640 
	C511.210388,440.133087 511.180969,439.133026 512.626953,438.817657 
	C513.000000,462.596497 512.936096,486.193390 513.083984,509.788971 
	C513.101807,512.619995 512.433533,513.090576 509.729340,513.075378 
	C486.465912,512.944153 463.201477,513.000000 439.468658,513.000000 
z"/>
</svg>