<svg version="1.1" id="Layer_1" xmlns="http://www.w3.org/2000/svg" xmlns:xlink="http://www.w3.org/1999/xlink" x="0px" y="0px"
	 width="100%" viewBox="0 0 512 512" enable-background="new 0 0 512 512" xml:space="preserve">
<path fill="#014DBA" opacity="1.000000" stroke="none" 
	d="
M1.397866,286.305084 
	C1.000000,216.312439 1.000000,146.624878 1.000000,76.468658 
	C3.372942,67.208107 5.998620,58.546814 10.346564,50.436127 
	C23.478956,25.938902 43.599854,10.286455 70.089371,2.476987 
	C71.858398,1.955453 73.767311,2.394582 75.719955,1.244044 
	C151.687561,1.000000 227.375122,1.000000 303.531342,1.000000 
	C305.591064,2.760371 305.598633,4.953471 305.598877,7.113739 
	C305.601196,26.052088 305.728790,44.990612 305.519348,64.420593 
	C305.727631,82.266335 305.655090,99.620445 305.514862,117.465164 
	C305.733673,136.955124 305.653473,155.954742 305.516205,175.444885 
	C305.726166,192.959167 305.657806,209.983170 305.513824,227.499908 
	C305.787628,245.511185 305.579498,263.030762 305.595947,280.549866 
	C305.597473,282.204651 305.494659,283.859039 304.520416,285.825500 
	C302.054138,287.850769 299.493713,287.623993 297.017700,287.624695 
	C200.722122,287.652130 104.426544,287.652374 8.130971,287.628845 
	C5.975669,287.628326 3.777717,287.752533 1.397866,286.305084 
z"/>
<path fill="#F40230" opacity="1.000000" stroke="none" 
	d="
M512.602051,337.694824 
	C513.000000,357.020905 513.000000,376.041779 513.000000,395.531342 
	C511.541565,397.337830 509.723877,397.523743 507.872131,397.596283 
	C506.040527,397.668060 504.207855,397.645386 502.375580,397.645386 
	C338.792694,397.646637 175.209839,397.650024 11.626969,397.621643 
	C8.334320,397.621063 4.942173,398.195374 1.397870,396.305176 
	C1.000000,376.979095 1.000000,357.958221 1.000000,338.468658 
	C2.458419,336.662140 4.276135,336.476196 6.127868,336.403687 
	C7.959477,336.331909 9.792147,336.354645 11.624413,336.354614 
	C175.206985,336.353394 338.789551,336.350006 502.372131,336.378387 
	C505.665039,336.378967 509.057465,335.804443 512.602051,337.694824 
z"/>
<path fill="#F4002F" opacity="1.000000" stroke="none" 
	d="
M438.287354,512.754028 
	C317.645782,513.000000 197.291550,513.000000 76.468658,513.000000 
	C66.848808,510.648407 57.925400,507.751526 49.547356,503.231110 
	C29.271914,492.291534 15.044229,475.991913 6.232514,454.847382 
	C5.322563,452.663879 3.951059,450.137024 7.229175,447.985718 
	C10.932855,447.102783 14.275898,447.373993 17.597944,447.373718 
	C176.804413,447.359863 336.010895,447.361542 495.217377,447.362701 
	C498.881165,447.362732 502.544830,447.365662 506.645935,447.273743 
	C511.225159,447.965363 509.337555,450.626160 508.658600,452.593475 
	C504.913849,463.444000 498.934448,473.017883 491.464447,481.661102 
	C478.918488,496.177490 463.337555,505.949951 444.901520,511.255096 
	C442.803925,511.858704 440.584320,511.613892 438.287354,512.754028 
z"/>
<path fill="#FFFDFD" opacity="1.000000" stroke="none" 
	d="
M509.169067,447.713867 
	C506.870697,449.246033 504.635376,448.659760 502.522186,448.660126 
	C337.179199,448.690125 171.836227,448.691467 5.994042,448.732117 
	C1.673754,446.328766 3.012535,441.866638 1.241306,438.264221 
	C1.000000,424.312439 1.000000,410.624878 1.000000,396.468658 
	C171.354324,396.008667 341.708649,396.017365 512.531494,396.013031 
	C513.000000,409.687561 513.000000,423.375122 513.000000,437.531342 
	C510.993256,440.876373 512.238708,444.942535 509.169067,447.713867 
z"/>
<path fill="#FFFFFF" opacity="1.000000" stroke="none" 
	d="
M513.000000,337.531372 
	C511.511749,338.094452 510.023499,338.271484 508.535248,338.271606 
	C340.326355,338.284119 172.117447,338.283539 3.908540,338.281830 
	C3.242642,338.281830 2.576743,338.255371 1.455422,338.120667 
	C1.000000,320.979095 1.000000,303.958221 1.000000,286.468658 
	C101.794342,285.992157 202.588684,285.984314 303.865845,285.884033 
	C306.325104,284.135468 308.732086,284.385315 311.033112,284.384064 
	C375.980072,284.349152 440.927063,284.352692 505.874023,284.375885 
	C508.028076,284.376648 510.225220,284.249084 512.603149,285.695923 
	C513.000000,303.020905 513.000000,320.041779 513.000000,337.531372 
z"/>
<path fill="#F40130" opacity="1.000000" stroke="none" 
	d="
M513.000000,285.531342 
	C450.735413,285.978973 388.470856,285.958801 326.206268,285.935760 
	C319.214111,285.933167 312.221924,285.914093 304.789215,285.847107 
	C304.353851,266.848083 304.359070,247.904556 304.485474,228.512482 
	C306.441956,226.141205 308.874939,226.394806 311.164093,226.393188 
	C376.235321,226.346939 441.306580,226.352295 506.377808,226.380096 
	C508.368286,226.380936 510.390503,226.328308 512.603394,227.696152 
	C513.000000,247.020889 513.000000,266.041779 513.000000,285.531342 
z"/>
<path fill="#F40130" opacity="1.000000" stroke="none" 
	d="
M304.944000,176.156784 
	C304.520782,156.803192 304.434113,137.820389 304.477966,118.382217 
	C306.520203,116.149445 308.934875,116.389931 311.230896,116.388603 
	C376.280640,116.350899 441.330353,116.351166 506.380096,116.380470 
	C508.369934,116.381363 510.391479,116.328697 512.603516,117.696251 
	C513.000000,137.020889 513.000000,156.041794 513.000000,175.531342 
	C511.081390,177.719467 508.696411,177.617096 506.376160,177.618149 
	C441.281097,177.647629 376.186066,177.653473 311.091003,177.616669 
	C309.098724,177.615555 307.076080,177.641129 304.944000,176.156784 
z"/>
<path fill="#F3002F" opacity="1.000000" stroke="none" 
	d="
M305.030701,65.684151 
	C304.501587,48.389103 304.391022,31.356094 304.285553,14.323058 
	C304.259918,10.186336 304.250916,6.049509 304.117126,1.456365 
	C348.354218,1.000000 392.708466,1.000000 437.531342,1.000000 
	C445.568024,2.864127 453.017609,5.052215 460.070251,8.467127 
	C482.646698,19.398714 498.628235,36.524460 508.164948,59.668911 
	C508.965363,61.611408 510.776154,63.907520 507.581604,66.045074 
	C504.540558,66.787338 501.866669,66.622543 499.207764,66.623009 
	C437.428162,66.633804 375.648590,66.635880 313.868988,66.616913 
	C311.053192,66.616043 308.196320,66.922218 305.030701,65.684151 
z"/>
<path fill="#FEFCFD" opacity="1.000000" stroke="none" 
	d="
M304.495483,65.847412 
	C370.911438,65.417046 437.212616,65.409782 503.513824,65.421066 
	C504.997681,65.421318 506.481506,65.632561 508.380981,65.940170 
	C512.365234,68.327469 511.358856,72.341705 512.761230,75.745926 
	C513.000000,89.687561 513.000000,103.375122 513.000000,117.531342 
	C443.819153,117.975021 374.638275,117.950043 305.032959,117.925957 
	C304.532593,100.708801 304.456665,83.490761 304.495483,65.847412 
z"/>
<path fill="#FFFFFF" opacity="1.000000" stroke="none" 
	d="
M304.477936,176.255295 
	C373.764069,175.797668 442.920654,175.809326 512.538635,175.910492 
	C513.000000,193.020889 513.000000,210.041794 513.000000,227.531342 
	C443.818390,228.020569 374.636810,228.041138 305.030945,228.062805 
	C304.520599,210.950806 304.434509,193.837708 304.477936,176.255295 
z"/>
<path fill="#000000" opacity="0.000000" stroke="none" 
	d="
M75.531342,1.000000 
	C76.459518,2.331543 75.681221,2.696080 74.579575,2.959218 
	C37.477356,11.821456 14.475472,35.376579 3.279138,71.297279 
	C2.768116,72.936775 3.956469,75.110092 1.396470,76.116241 
	C1.000000,52.070206 1.063125,28.140024 0.916093,4.211131 
	C0.898697,1.380055 1.566556,0.909735 4.270787,0.924678 
	C27.867502,1.055072 51.465244,1.000000 75.531342,1.000000 
z"/>
<path fill="#000000" opacity="0.000000" stroke="none" 
	d="
M1.000000,438.468658 
	C2.619833,437.132080 2.731567,438.294342 3.001308,439.415649 
	C3.705114,442.341370 4.477010,445.250702 5.358294,448.467926 
	C11.203462,466.329407 21.310135,480.720917 35.677845,492.419678 
	C47.576721,502.108215 60.971138,508.152039 75.780716,511.473145 
	C76.024582,511.527863 76.181595,511.969940 76.189568,512.615601 
	C52.070202,513.000000 28.140017,512.936890 4.211123,513.083923 
	C1.380020,513.101318 0.909737,512.433411 0.924680,509.729187 
	C1.055069,486.132477 1.000000,462.534760 1.000000,438.468658 
z"/>
<path fill="#000000" opacity="0.000000" stroke="none" 
	d="
M508.906616,448.253815 
	C510.546631,444.568268 509.842865,440.455933 512.661621,437.702545 
	C513.000000,461.929810 512.936890,485.859985 513.083923,509.788879 
	C513.101318,512.619934 512.433472,513.090210 509.729218,513.075317 
	C486.132507,512.944885 462.534760,513.000000 438.468658,513.000000 
	C437.292999,511.618408 438.249451,511.259705 439.265900,511.063965 
	C460.034241,507.065430 476.880707,496.318634 490.720398,480.694122 
	C499.012970,471.332123 504.822571,460.419281 508.906616,448.253815 
z"/>
<path fill="#000000" opacity="0.000000" stroke="none" 
	d="
M513.000000,75.531342 
	C510.915771,76.804146 511.032745,75.225655 511.032013,74.052490 
	C511.030365,71.392097 509.883881,69.107132 508.834320,66.450699 
	C505.853210,53.412342 498.851776,42.851608 490.560120,33.162964 
	C479.812073,20.604042 466.495605,11.532386 450.870758,5.995572 
	C446.504242,4.448266 442.041962,3.171163 437.811829,1.385049 
	C461.929779,1.000000 485.859985,1.063123 509.788849,0.916096 
	C512.619934,0.898701 513.090210,1.566509 513.075256,4.270772 
	C512.944885,27.867493 513.000000,51.465240 513.000000,75.531342 
z"/>
<path fill="#F8FAFD" opacity="1.000000" stroke="none" 
	d="
M244.897858,31.160269 
	C245.991318,35.109093 249.063324,34.798634 251.793594,35.366474 
	C253.941574,35.813206 256.934326,35.389751 257.586670,38.321869 
	C258.116058,40.701500 256.230499,42.427509 254.486267,43.631855 
	C250.717514,46.234093 250.226517,49.585705 251.425079,53.639328 
	C251.989624,55.548695 252.593048,57.702568 250.776428,59.243286 
	C248.787170,60.930450 246.849991,59.415272 245.349243,58.328789 
	C241.483871,55.530411 237.833237,55.569798 233.954285,58.199570 
	C232.445435,59.222511 230.601471,60.139065 228.853134,58.856022 
	C227.055664,57.536926 227.556458,55.311596 228.115952,53.768497 
	C229.959488,48.684128 228.100403,45.207886 224.073059,42.272564 
	C222.725632,41.290493 221.537476,39.924347 222.078003,38.024570 
	C222.641891,36.042591 224.480316,35.801121 226.114166,35.731358 
	C231.186768,35.514774 234.541000,33.583508 236.498703,28.423683 
	C238.288330,23.706852 240.711197,23.870533 243.316116,28.182426 
	C243.831100,29.034853 244.270599,29.932869 244.897858,31.160269 
z"/>
<path fill="#F9FBFD" opacity="1.000000" stroke="none" 
	d="
M191.924133,261.963898 
	C190.719208,261.870178 189.731415,261.944672 189.138077,261.496704 
	C184.376358,257.901611 179.865158,257.703125 174.698395,261.146362 
	C171.337463,263.386108 168.891479,261.669342 169.744598,257.787811 
	C170.958527,252.264679 170.307220,248.083649 165.497391,244.361755 
	C162.217255,241.823532 163.314713,238.529724 167.521744,238.391602 
	C173.385727,238.199081 176.378891,235.472275 178.607315,230.390350 
	C180.286682,226.560516 183.318268,226.662567 184.956802,230.668777 
	C187.029755,235.737122 190.097870,238.056183 195.664627,238.339615 
	C200.246597,238.572906 201.240021,241.598694 197.735199,244.526169 
	C193.327896,248.207474 191.864639,252.126282 193.817383,257.528534 
	C194.375412,259.072357 194.104477,260.876465 191.924133,261.963898 
z"/>
<path fill="#F9FBFD" opacity="1.000000" stroke="none" 
	d="
M265.216766,179.380859 
	C267.740662,175.314346 270.427429,175.521286 271.843231,179.382370 
	C273.847839,184.849258 277.549988,186.681076 282.978210,187.163040 
	C287.212280,187.538986 288.112732,190.361938 284.811829,193.201172 
	C280.571533,196.848419 278.625458,200.661423 280.716553,206.135910 
	C281.248749,207.529221 281.074524,209.158401 279.759460,210.272842 
	C278.118988,211.663071 276.416687,210.752502 275.175995,209.820221 
	C270.747559,206.492615 266.713409,206.807312 262.075073,209.744934 
	C258.143311,212.235046 255.744476,210.534882 256.785034,206.047668 
	C258.042999,200.622803 257.298431,196.421097 252.442032,193.248627 
	C251.179871,192.424133 250.322144,191.005966 250.824203,189.353088 
	C251.409576,187.425873 253.155533,187.053726 254.828232,187.026901 
	C259.969727,186.944366 263.717865,185.043961 265.216766,179.380859 
z"/>
<path fill="#FAFCFE" opacity="1.000000" stroke="none" 
	d="
M80.777420,35.927322 
	C85.449883,37.752342 84.106926,40.498688 81.769279,42.441113 
	C77.784698,45.752037 75.826706,49.261593 77.783852,54.486214 
	C78.375366,56.065273 78.630020,58.206898 76.700172,59.474388 
	C74.977058,60.606094 73.352356,59.570660 72.078888,58.676136 
	C68.002571,55.812824 64.234779,55.623894 59.728550,58.166046 
	C54.911400,60.883598 52.908890,59.478794 53.968792,54.216751 
	C54.990170,49.145996 54.140453,45.531368 49.963787,42.146931 
	C46.301620,39.179401 47.100880,36.359592 51.603050,35.903255 
	C57.094475,35.346645 60.585171,33.302177 62.642544,27.891048 
	C64.188492,23.825024 67.330482,23.803122 68.842751,27.872957 
	C70.964264,33.582355 74.757866,35.775806 80.777420,35.927322 
z"/>
<path fill="#F9FAFD" opacity="1.000000" stroke="none" 
	d="
M228.450989,252.110107 
	C228.965851,248.140518 225.553238,247.237167 223.928574,245.108795 
	C222.823441,243.661026 221.148026,242.488235 221.967789,240.379745 
	C222.675613,238.559250 224.551270,238.126633 226.126419,238.181931 
	C231.363510,238.365829 234.442032,235.913895 236.060043,231.081696 
	C236.579117,229.531464 237.515884,227.924271 239.466827,227.833435 
	C241.724792,227.728271 242.696182,229.527054 243.243393,231.242020 
	C244.833435,236.225372 248.235229,238.223434 253.297134,238.186890 
	C254.902878,238.175308 256.721527,238.662460 257.463501,240.432327 
	C258.259674,242.331558 256.970795,243.759949 255.684921,244.687668 
	C251.215515,247.912155 249.752823,251.884781 251.684921,257.161865 
	C252.251450,258.709229 252.221741,260.593048 250.545654,261.659546 
	C249.111938,262.571808 247.661530,261.896515 246.337769,261.122559 
	C242.402557,258.821777 238.569565,256.678284 234.173157,260.457092 
	C232.760895,261.670959 230.678314,262.942139 228.697586,261.531464 
	C226.711334,260.116791 227.592499,257.931610 227.881287,255.987518 
	C228.052261,254.836472 228.193817,253.681030 228.450989,252.110107 
z"/>
<path fill="#FAFCFE" opacity="1.000000" stroke="none" 
	d="
M135.299530,254.624420 
	C135.782761,257.277985 137.018463,259.822113 134.741302,261.526337 
	C132.634506,263.103027 130.505066,261.447784 128.831604,260.256073 
	C125.428947,257.833008 122.306725,257.752289 118.861473,260.140472 
	C117.153427,261.324463 115.107788,262.953674 112.925163,261.614746 
	C110.603699,260.190643 111.415932,257.591766 112.040237,255.676468 
	C113.499130,251.200729 112.041000,248.087555 108.491020,245.403839 
	C106.946693,244.236374 105.164848,242.754425 106.067726,240.415726 
	C106.838081,238.420288 108.923561,238.101746 110.698372,238.119705 
	C115.454407,238.167801 118.429436,236.073608 119.943420,231.570770 
	C120.514557,229.872162 121.358131,227.985382 123.527809,227.841522 
	C126.058632,227.673737 126.993813,229.830551 127.566017,231.629166 
	C129.040787,236.264786 132.145370,238.096268 136.810242,238.118149 
	C138.608047,238.126587 140.679276,238.476593 141.471909,240.415344 
	C142.427292,242.752228 140.438217,244.072113 139.060471,245.400970 
	C136.535751,247.836060 133.642761,250.021942 135.299530,254.624420 
z"/>
<path fill="#F9FBFD" opacity="1.000000" stroke="none" 
	d="
M236.615662,128.782379 
	C238.862244,125.580078 241.314224,125.739754 242.499451,128.742905 
	C244.685120,134.281052 248.109756,137.003937 254.234100,137.248123 
	C258.126526,137.403320 259.094696,140.501724 255.996353,143.013779 
	C251.400406,146.740082 250.147964,150.707443 251.667297,156.404007 
	C252.760849,160.504089 250.203674,162.238373 246.475143,159.866074 
	C241.702972,156.829758 237.494064,156.500671 232.922928,159.910004 
	C231.792847,160.752853 230.244720,161.517426 228.759979,160.393616 
	C227.188934,159.204422 227.216263,157.508942 227.731354,155.858841 
	C229.326233,150.749695 228.387558,146.579147 223.693405,143.479736 
	C222.301254,142.560547 221.261673,141.057999 221.930679,139.192001 
	C222.515625,137.560425 224.096939,137.008041 225.574844,137.078796 
	C231.430389,137.359085 234.775497,134.422775 236.615662,128.782379 
z"/>
<path fill="#FAFCFE" opacity="1.000000" stroke="none" 
	d="
M71.997955,236.218445 
	C74.578232,237.946259 77.328033,237.690155 79.906883,238.238297 
	C84.193344,239.149445 85.252625,241.608566 82.002602,244.286774 
	C77.420685,248.062592 76.273674,252.069687 77.776253,257.746948 
	C78.797653,261.606201 76.314705,263.354370 72.891045,261.224182 
	C68.011604,258.188232 63.835476,257.763336 58.849670,261.101685 
	C55.443367,263.382507 52.923599,261.715973 53.823910,257.902161 
	C55.190742,252.112152 54.022629,247.913757 49.342735,244.065918 
	C46.403439,241.649231 47.534580,238.542725 51.521080,238.400238 
	C57.318455,238.193054 60.439404,235.639114 62.618469,230.460373 
	C64.246979,226.590057 66.876320,226.826675 69.067650,230.560287 
	C70.075104,232.276810 70.908112,234.095749 71.997955,236.218445 
z"/>
<path fill="#F9FBFD" opacity="1.000000" stroke="none" 
	d="
M178.674698,128.825134 
	C181.204239,125.252808 183.618912,125.991463 184.815475,129.117355 
	C186.812576,134.334641 190.011734,136.845322 195.734238,137.164444 
	C200.319641,137.420166 201.258301,140.368988 197.694565,143.363434 
	C193.490158,146.896194 191.792831,150.577271 193.755692,155.862808 
	C194.316803,157.373779 194.303589,159.212387 192.691711,160.412292 
	C191.197510,161.524597 189.668106,160.827042 188.531326,159.970200 
	C183.987701,156.545471 179.775208,156.767578 174.985809,159.837967 
	C171.303116,162.198853 168.826874,160.537216 169.773209,156.412750 
	C171.049118,150.851959 170.246719,146.752014 165.476456,143.057526 
	C162.188828,140.511322 163.329956,137.324615 167.583572,137.177399 
	C173.374573,136.977005 176.810989,134.473541 178.674698,128.825134 
z"/>
<path fill="#F9FBFD" opacity="1.000000" stroke="none" 
	d="
M201.126541,210.848251 
	C197.118637,209.301651 198.494110,206.261780 199.087570,203.943069 
	C200.123352,199.896255 199.232162,196.992462 195.836761,194.528000 
	C194.179489,193.325104 192.078201,191.805344 192.947433,189.235916 
	C193.732712,186.914551 196.054062,186.982498 198.014893,186.931992 
	C202.477478,186.817078 205.369247,184.788361 206.827438,180.512634 
	C207.463211,178.648392 208.380219,176.536835 210.752213,176.528824 
	C212.882690,176.521622 213.917282,178.432358 214.397079,180.163116 
	C215.769867,185.115204 219.271469,186.754486 223.950623,186.932175 
	C225.816559,187.003021 227.808716,187.294342 228.509827,189.318146 
	C229.228210,191.391846 227.683334,192.905853 226.247910,193.898956 
	C221.909668,196.900375 221.274597,200.671005 222.583984,205.559189 
	C223.716782,209.788101 221.439713,212.310516 218.765091,210.356125 
	C212.578918,205.835709 207.153503,207.539368 201.126541,210.848251 
z"/>
<path fill="#FAFBFE" opacity="1.000000" stroke="none" 
	d="
M35.558273,208.521942 
	C34.340794,209.161331 33.460762,209.636444 32.547859,210.036545 
	C30.345644,211.001694 28.161400,213.376221 25.697361,211.523499 
	C23.484581,209.859711 24.451355,206.936493 25.211504,204.979843 
	C26.949781,200.505478 24.384775,198.194672 21.608057,195.697006 
	C20.140285,194.376770 18.265884,193.006760 19.031836,190.701752 
	C19.792334,188.413162 22.212400,188.179199 24.073978,188.226364 
	C28.802528,188.346161 31.382195,186.046494 32.922855,181.841843 
	C33.583691,180.038361 34.369957,177.882584 36.901672,177.965012 
	C39.130314,178.037552 39.970043,179.990875 40.542999,181.633972 
	C42.098629,186.095154 44.863094,188.377472 49.761894,188.265350 
	C51.623161,188.222763 54.029831,188.552505 54.706924,190.886581 
	C55.312569,192.974380 53.636463,194.398544 52.209290,195.414566 
	C48.102242,198.338501 47.092808,201.952652 48.715416,206.667694 
	C49.277874,208.302109 49.649952,210.462006 47.773109,211.698868 
	C45.978512,212.881500 44.323177,211.599106 42.627254,210.948700 
	C40.374165,210.084656 38.694820,207.725876 35.558273,208.521942 
z"/>
<path fill="#FAFBFE" opacity="1.000000" stroke="none" 
	d="
M137.771759,188.637726 
	C143.640976,188.509125 147.319763,186.384949 149.432404,180.872040 
	C151.069443,176.600235 154.233185,176.621109 155.984055,180.890106 
	C158.083160,186.008209 161.251770,188.147354 166.742508,188.529312 
	C171.368683,188.851135 172.241592,191.729385 168.674332,194.726959 
	C164.457962,198.269974 162.860062,201.995178 164.763565,207.261337 
	C165.304428,208.757614 165.408051,210.706635 163.657562,211.755814 
	C162.244278,212.602905 160.671982,212.219788 159.438309,211.276642 
	C154.914383,207.818085 150.716248,208.115814 145.926178,211.209946 
	C142.275497,213.568069 139.766495,211.805405 140.840103,207.660461 
	C142.329880,201.908798 140.840057,197.948654 136.289398,194.365570 
	C133.968964,192.538483 133.769089,189.997513 137.771759,188.637726 
z"/>
<path fill="#FAFBFE" opacity="1.000000" stroke="none" 
	d="
M146.167877,85.457161 
	C147.512939,83.111656 148.504974,81.006729 149.703735,79.026985 
	C151.620285,75.861786 154.332596,75.640999 155.633209,79.000587 
	C157.824829,84.661644 161.348267,87.192696 167.420181,87.417732 
	C170.886429,87.546196 172.165771,90.491211 169.294540,92.909081 
	C164.773560,96.716194 162.992325,100.679611 164.746170,106.646767 
	C165.867340,110.461411 163.297989,112.329216 159.943756,110.195618 
	C154.878372,106.973579 150.531403,106.991272 145.475708,110.197914 
	C142.195496,112.278427 139.854950,110.475166 140.817734,106.502312 
	C142.176437,100.895828 141.099686,96.879578 136.445343,93.194412 
	C133.210922,90.633484 134.361969,88.058929 138.605347,87.159431 
	C141.029800,86.645508 143.472900,86.219498 146.167877,85.457161 
z"/>
<path fill="#FAFBFE" opacity="1.000000" stroke="none" 
	d="
M106.726051,105.262421 
	C106.857887,111.274529 105.381454,112.544632 100.964592,109.745255 
	C96.622253,106.993103 92.917969,106.681404 88.757828,109.709167 
	C87.344292,110.737938 85.509628,111.828613 83.699966,110.426338 
	C82.155998,109.229935 82.363564,107.393845 82.851288,105.802315 
	C84.370720,100.844177 83.517227,96.807152 78.966072,93.785950 
	C77.594391,92.875389 76.369690,91.406158 76.978432,89.544975 
	C77.658447,87.465904 79.701584,87.064072 81.493233,87.099861 
	C86.487495,87.199615 89.542236,84.979240 91.078316,80.242424 
	C91.623344,78.561699 92.558327,76.690048 94.800476,76.724426 
	C97.036392,76.758720 97.931175,78.654541 98.453453,80.342049 
	C99.948212,85.171692 103.157700,87.172722 108.075539,87.094826 
	C109.909447,87.065773 111.969780,87.539093 112.605583,89.555374 
	C113.250801,91.601494 111.648453,93.049751 110.232697,94.136963 
	C106.572807,96.947548 104.718971,100.228844 106.726051,105.262421 
z"/>
<path fill="#FAFCFE" opacity="1.000000" stroke="none" 
	d="
M111.795486,193.723557 
	C107.078590,197.548798 104.798973,201.526520 106.729439,207.692184 
	C107.980568,211.688156 105.288666,213.528275 101.597160,211.218338 
	C96.834457,208.238113 92.854294,208.054703 88.023140,211.168365 
	C84.163193,213.656113 81.806534,211.868484 82.927612,207.240768 
	C84.225830,201.881851 82.884773,198.265411 78.754005,194.748672 
	C75.274117,191.786057 76.236603,188.747269 80.833069,188.522293 
	C86.483887,188.245682 89.389290,185.732880 91.501411,180.755112 
	C93.259972,176.610641 96.249405,176.698212 98.070000,181.012451 
	C100.116051,185.860947 102.977394,188.387283 108.414307,188.425140 
	C110.940483,188.442734 114.184662,189.354645 111.795486,193.723557 
z"/>
<path fill="#F9FBFE" opacity="1.000000" stroke="none" 
	d="
M136.406403,146.825989 
	C133.668030,149.625031 135.408005,152.381393 135.702026,155.059265 
	C135.898758,156.851135 136.558823,158.763565 134.947922,160.218994 
	C133.163589,161.831131 131.278610,160.675446 129.947220,159.669006 
	C125.619728,156.397659 121.598961,156.576828 117.337868,159.762878 
	C116.108292,160.682236 114.396584,161.635071 112.738129,160.325943 
	C111.187210,159.101700 111.294510,157.328629 111.821869,155.748703 
	C113.558594,150.545654 112.182732,146.523026 107.714798,143.378189 
	C106.325020,142.399963 105.302071,140.914612 106.084312,139.076263 
	C106.743492,137.527161 108.322853,136.996948 109.811378,137.059525 
	C115.404709,137.294632 118.372559,134.470322 120.466278,129.464539 
	C122.221344,125.268440 125.016655,125.368599 127.048531,129.511871 
	C129.012955,133.517609 130.814804,137.160843 136.203384,136.885559 
	C138.325485,136.777130 140.898834,137.035172 141.611130,139.528244 
	C142.237778,141.721527 140.171066,143.037781 138.818375,144.458344 
	C138.131531,145.179657 137.403976,145.862213 136.406403,146.825989 
z"/>
<path fill="#FAFCFE" opacity="1.000000" stroke="none" 
	d="
M261.898956,108.766037 
	C257.219910,110.551628 255.759430,108.503571 256.784119,104.625450 
	C258.153229,99.443939 257.334320,95.334923 252.712723,92.210747 
	C251.313431,91.264832 250.267822,89.807289 250.919708,87.937744 
	C251.587646,86.022179 253.417953,85.794556 255.051346,85.781868 
	C260.288788,85.741180 263.703552,83.494606 265.204346,78.322525 
	C265.654846,76.770012 266.716614,75.130333 268.663940,75.198120 
	C270.558685,75.264076 271.587524,76.854195 272.063202,78.442986 
	C273.607269,83.600441 277.114807,85.766289 282.312378,85.790138 
	C283.997437,85.797874 285.766937,86.184311 286.436768,88.016533 
	C287.221771,90.163872 285.623627,91.566811 284.223541,92.579498 
	C280.026886,95.614975 278.884033,99.385048 280.591644,104.228172 
	C281.149506,105.810463 281.261169,107.618660 279.795563,108.870392 
	C278.044739,110.365768 276.173553,109.443336 274.767029,108.375458 
	C270.451202,105.098717 266.352112,105.300583 261.898956,108.766037 
z"/>
<path fill="#FAFBFE" opacity="1.000000" stroke="none" 
	d="
M61.698368,130.800446 
	C62.753128,128.699081 63.466892,126.547066 65.866608,126.563080 
	C68.034012,126.577538 68.995941,128.534851 69.479973,130.225983 
	C70.891037,135.155991 74.328606,136.846802 79.053909,136.955414 
	C80.919350,136.998291 82.923775,137.360565 83.601738,139.366348 
	C84.297882,141.425888 82.720062,142.930466 81.291611,143.935974 
	C76.984322,146.967972 76.118256,150.785858 77.761543,155.607986 
	C78.272659,157.107834 78.445572,158.957870 76.950089,160.255508 
	C75.335770,161.656265 73.639595,160.801376 72.371811,159.867874 
	C67.968384,156.625610 63.769863,156.388153 59.310753,159.792831 
	C58.095932,160.720383 56.356266,161.640747 54.710091,160.293396 
	C53.170559,159.033325 53.328983,157.217529 53.872406,155.684708 
	C55.749599,150.389725 54.025444,146.483582 49.672588,143.340302 
	C48.426342,142.440369 47.507046,141.098618 47.956352,139.469894 
	C48.483032,137.560699 50.229858,137.200012 51.910229,137.024292 
	C56.071724,136.589127 60.392200,136.472092 61.698368,130.800446 
z"/>
<path fill="#FAFBFE" opacity="1.000000" stroke="none" 
	d="
M50.623703,95.840691 
	C46.944321,98.339752 47.951763,101.453346 48.569328,104.569641 
	C48.976551,106.624504 49.910534,109.019333 47.705860,110.545357 
	C45.720520,111.919571 43.765697,110.513977 42.234066,109.389168 
	C38.324715,106.518173 34.743816,106.880699 30.956430,109.616310 
	C29.552809,110.630119 27.748432,111.793182 25.897825,110.531792 
	C24.049000,109.271637 24.376808,107.206635 24.932365,105.516449 
	C26.600855,100.440369 25.230181,96.620743 20.843800,93.640045 
	C19.470940,92.707138 18.374136,91.252007 19.051970,89.366859 
	C19.640436,87.730247 21.283117,87.177811 22.698263,87.209221 
	C28.203930,87.331398 31.401541,84.896881 33.444374,79.700607 
	C35.114475,75.452446 38.222088,75.436737 40.009758,79.588478 
	C42.137642,84.530342 45.045494,87.449188 50.695827,87.182297 
	C52.329853,87.105110 54.337269,87.757477 54.690907,89.583389 
	C55.260094,92.522247 52.442341,93.737267 50.623703,95.840691 
z"/>
<path fill="#FAFCFE" opacity="1.000000" stroke="none" 
	d="
M222.537338,85.372162 
	C224.914307,86.058975 227.628937,85.504395 228.457108,88.063354 
	C229.273026,90.584457 227.147339,92.133972 225.500763,93.295486 
	C221.770721,95.926689 221.245071,99.245827 222.405701,103.293571 
	C222.950241,105.192612 223.649414,107.335030 221.804031,108.881401 
	C219.863037,110.507866 217.905640,109.213020 216.347900,108.101921 
	C212.515244,105.368172 208.925888,105.227417 205.077148,108.086754 
	C203.537842,109.230354 201.549866,110.472130 199.598480,108.959160 
	C197.890396,107.634834 198.330322,105.564064 198.898239,103.862671 
	C200.542953,98.935295 199.002228,95.289894 194.900772,92.382469 
	C193.534622,91.414040 192.383270,90.056114 192.870682,88.164948 
	C193.386337,86.164192 195.178619,85.798241 196.831177,85.823769 
	C202.338562,85.908859 205.361404,83.159431 207.458649,78.172943 
	C209.252213,73.908455 211.715591,74.097801 214.046234,78.198685 
	C215.938019,81.527351 216.721252,86.027382 222.537338,85.372162 
z"/>
<path fill="#FAFCFE" opacity="1.000000" stroke="none" 
	d="
M180.507065,25.392412 
	C183.746399,24.618906 184.741867,26.887701 185.397217,28.817913 
	C186.914093,33.285618 189.688126,35.499989 194.479477,35.564682 
	C196.334839,35.589733 198.791580,35.638359 199.529480,38.001423 
	C200.254623,40.323608 198.378464,41.807926 196.841293,42.899971 
	C192.837891,45.744125 192.208008,49.311493 193.615768,53.727184 
	C194.157974,55.427910 194.583038,57.477661 192.869370,58.837299 
	C191.124130,60.221981 189.279922,59.288296 187.816132,58.226440 
	C183.726166,55.259552 179.799622,55.071873 175.684494,58.181953 
	C174.224533,59.285339 172.330338,60.145435 170.602768,58.859150 
	C169.072723,57.719940 169.261475,55.796101 169.833801,54.245541 
	C171.814606,48.879227 169.674149,45.215736 165.526733,41.919785 
	C163.332199,40.175774 162.412994,36.469650 165.949661,36.349049 
	C173.690964,36.085079 177.192093,31.464687 180.507065,25.392412 
z"/>
<path fill="#FAFCFE" opacity="1.000000" stroke="none" 
	d="
M138.747711,35.928673 
	C142.681763,37.287186 142.520859,39.741928 140.132446,41.585682 
	C135.489014,45.170212 134.139679,49.186214 135.736725,54.940178 
	C136.860260,58.988102 134.164215,60.913883 130.600677,58.552952 
	C125.625389,55.256691 121.534515,55.525051 116.633926,58.656490 
	C113.238495,60.826145 110.885773,59.069592 111.808640,55.087280 
	C113.097412,49.526035 112.254234,45.440903 107.515564,41.738640 
	C104.251312,39.188320 105.309502,36.283386 109.655319,35.889244 
	C115.190453,35.387230 118.581284,33.214447 120.638916,27.850542 
	C122.186043,23.817448 125.336487,23.816807 126.836220,27.894356 
	C128.940842,33.616440 132.756073,35.760471 138.747711,35.928673 
z"/>
</svg>